<svg xmlns="http://www.w3.org/2000/svg" id="Capa_1" data-name="Capa 1" viewBox="0 0 81.47 249.31"><defs><style>      .cls-1 {        fill: #fab704;        stroke-width: 0px;      }    </style></defs><path class="cls-1" d="M81.37,81.41c0,25.7,0,51.4,0,77.09,0,.81.03,1.62-.02,2.42-.14,2.09-.89,2.55-2.85,1.67-2.65-1.19-5.26-2.45-7.88-3.7-10.63-5.07-21.25-10.14-31.87-15.22-2.93-1.4-3.17-1.29-4.14,1.87-10.24,33.19-20.48,66.38-30.73,99.56-.31,1-.64,2-1,2.99-.27.71-.71,1.35-1.59,1.19-.85-.15-1.1-.88-1.18-1.64-.06-.64-.07-1.29-.07-1.94C.02,193.67,0,141.63,0,89.58c0-3.79.73-4.23,4.1-2.63,12.89,6.14,25.78,12.26,38.67,18.39,2.84,1.35,3.18,1.24,4.1-1.73,9.26-29.86,18.5-59.72,27.76-89.58,1.15-3.7,2.26-7.42,3.51-11.09.4-1.17.25-3.24,2.18-2.91,1.71.3,1.04,2.13,1.05,3.31.04,12.36.03,24.73.03,37.09,0,13.66,0,27.31,0,40.97Z"></path></svg>